<svg xmlns="http://www.w3.org/2000/svg" xmlns:xlink="http://www.w3.org/1999/xlink" viewBox="0 0 200 200"><defs><style>.cls-1{fill:#ffd9ba;}.cls-2{clip-path:url(#clip-path);}.cls-3{fill:#e8b499;}.cls-11,.cls-4,.cls-9{fill:none;}.cls-4{stroke:#c47268;stroke-width:0.69px;}.cls-4,.cls-9{stroke-linecap:round;stroke-linejoin:round;}.cls-5{fill:#ef758d;}.cls-6{fill:#28466d;}.cls-7{fill:#1e0b02;}.cls-10,.cls-8{fill:#fff;}.cls-9{stroke:#1e0b02;stroke-width:0.96px;}.cls-10{opacity:0.23;}.cls-11{stroke:#fff;stroke-miterlimit:10;stroke-width:0.49px;}</style><clipPath id="clip-path"><circle class="cls-1" cx="100" cy="100" r="86.52" transform="translate(-41.42 100) rotate(-45)"/></clipPath></defs><title>Artboard 6</title><g id="OBJECTS"><circle class="cls-1" cx="100" cy="100" r="86.52" transform="translate(-41.42 100) rotate(-45)"/><g class="cls-2"><circle class="cls-3" cx="127.51" cy="83.72" r="9.43"/><path class="cls-4" d="M132.82,82.25s-3.8-1.72-7.19,4.89"/><path class="cls-3" d="M83.66,83.46A9.43,9.43,0,1,1,74,74.3,9.44,9.44,0,0,1,83.66,83.46Z"/><path class="cls-4" d="M68.88,82.4s3.75-1.83,7.32,4.68"/><path class="cls-5" d="M142.39,186h-85l.15-44.33a26.92,26.92,0,0,1,5.83-2.57,52.47,52.47,0,0,1,9.72-2l26.75,2.7,26.75-2.7a52.58,52.58,0,0,1,7.79,1.46h0a29.34,29.34,0,0,1,7.7,3.11Z"/><path class="cls-3" d="M63.52,139.09l31.53-8.29h10.86l28.51,7.76h0c-14.58,13.67-50.76,24.87-69.27,1.16Z"/><path class="cls-3" d="M110,102.54s-4.08,3.75-7.8,4.67-7.35-1.9-7.39-1.93L90.44,102l-1.75,31,.49.51c6.31,6.79,15.41,6.88,21.78.23l.94-1Z"/><path class="cls-5" d="M63.52,139.09,59.84,186H30.07c3.1-7.28,6.74-16,10.1-24.65,7.54-19.44,21.86-22,23.24-22.25Z"/><path class="cls-5" d="M169.89,186H139.3l-4.88-47.45h0c1,.13,16.91,2.62,25.13,22.79C163.26,170.39,166.94,179.1,169.89,186Z"/><path class="cls-6" d="M100.41,161.5a73.62,73.62,0,0,0,44.4-17.88C143,136.4,134.4,130.8,134.4,130.8s1.14-4.67-1.57-8.39,1.35-9.18,5.19-24.49.68-39.78-9-56.61S99.8,25.78,99.76,25.78,80.23,24.49,70.54,41.31s-12.87,41.29-9,56.61,7.9,20.78,5.19,24.49-1.57,8.39-1.57,8.39-8.62,5.6-10.41,12.82a73.62,73.62,0,0,0,44.4,17.88v.06l.64,0,.65,0Z"/><circle class="cls-6" cx="100.6" cy="65.77" r="29.61" transform="translate(12.7 147.74) rotate(-76.17)"/><path class="cls-7" d="M87.5,97.92s5.23,18.13,14.57,18c7.68-.15,9.81-17.05,9.81-17.05Z"/><path class="cls-3" d="M126.32,66.09a108.49,108.49,0,0,1-2.91,25.27c-1.46,6.12-5.63,10.42-11.52,13.89l-1.08.63a21.32,21.32,0,0,1-20.7.32h0c-6.43-3.5-10.94-8.15-12.36-14.7a157.68,157.68,0,0,1-2.91-25.15s-2.15-27.59,25.62-27.23S126.32,66.09,126.32,66.09Z"/><polyline class="cls-4" points="98.35 81.2 98.35 85.24 101.07 85.24"/><path d="M79.49,65.86l14.68-1.32s-1.32-3.8-7.25-3.19C80.84,62,79.49,65.86,79.49,65.86Z"/><path d="M119.84,65.86l-14.68-1.32s1.32-3.8,7.25-3.19C118.49,62,119.84,65.86,119.84,65.86Z"/><path class="cls-8" d="M91.69,89h16s-.61,4.18-8.3,4.18C93.11,93.15,91.69,89,91.69,89Z"/><path class="cls-9" d="M92.44,75.76s-3.8-3.1-7.13,0"/><path class="cls-9" d="M113.9,75.76s-3-3.18-7,0"/><path class="cls-10" d="M85.32,65.62l10.76,14.6s-3.24,6.21-8.41,5.52L76.81,71.49S79.75,65.22,85.32,65.62Z"/><path class="cls-10" d="M111.79,65.62l10.76,14.6s-3.24,6.21-8.41,5.52L103.28,71.49S106.21,65.22,111.79,65.62Z"/><path class="cls-11" d="M96.94,75.76A10.52,10.52,0,1,1,86.42,65.24,10.53,10.53,0,0,1,96.94,75.76Z"/><path class="cls-11" d="M123.43,75.76a10.52,10.52,0,1,1-10.52-10.52A10.53,10.53,0,0,1,123.43,75.76Z"/><path class="cls-11" d="M96.94,75.76a8.24,8.24,0,0,1,5.45,0"/><path class="cls-6" d="M126.32,59.82c-2.82-26-20.22-25.24-27.08-23.89C92.39,34.58,75,33.81,72.16,59.82A54.1,54.1,0,0,0,85.58,55a29.64,29.64,0,0,1,27.33,0A54.11,54.11,0,0,0,126.32,59.82Z"/></g></g></svg>