<svg xmlns="http://www.w3.org/2000/svg" xmlns:xlink="http://www.w3.org/1999/xlink" viewBox="0 0 200 200"><defs><style>.cls-1{fill:#f7d8ba;}.cls-2{clip-path:url(#clip-path);}.cls-3{fill:#fff;}.cls-4{fill:#1e0b02;}.cls-5{fill:#c67d69;}.cls-6{fill:none;stroke:#a8523f;stroke-linecap:round;stroke-linejoin:round;stroke-width:0.75px;}</style><clipPath id="clip-path"><circle class="cls-1" cx="100" cy="100" r="83.57" transform="translate(-41.42 100) rotate(-45)"/></clipPath></defs><title>Artboard 3</title><g id="OBJECTS"><circle class="cls-1" cx="100" cy="100" r="83.57" transform="translate(-41.42 100) rotate(-45)"/><g class="cls-2"><path class="cls-3" d="M181.94,188H20.7c7.44-33.38,27.39-40,27.39-40l38.46-18,14.57-.13h.4l14.59.13,38.46,18S174.51,154.63,181.94,188Z"/><path class="cls-4" d="M110.13,34.11s13.42-6,18.18,5.32c4.58,10.89-13.61,21.26-13.61,21.26Z"/><path class="cls-5" d="M85,79.24a9.1,9.1,0,1,1-9.36-8.85A9.09,9.09,0,0,1,85,79.24Z"/><path class="cls-6" d="M70.76,78.22s3.62-1.77,7.07,4.52"/><circle class="cls-5" cx="127.39" cy="79.5" r="9.11"/><path class="cls-6" d="M132.52,78.07s-3.67-1.66-6.94,4.73"/><path class="cls-5" d="M113.34,100.48s-5.13,3.62-9.81,4.52-9.23-1.82-9.28-1.86L88.78,100l-2.24,30,.61.5a21.7,21.7,0,0,0,27.39.19l1.17-.94Z"/><path class="cls-4" d="M86.54,96.85s5.11,16.7,16.85,16.51c9.65-.15,11.21-16.51,11.21-16.51Z"/><path class="cls-5" d="M126.25,63.64a113.33,113.33,0,0,1-2.81,25.5c-1.41,6.18-5.43,10.51-11.12,14l-1,.64a19.85,19.85,0,0,1-20,.32h0c-6.21-3.54-10.57-8.22-11.94-14.84a167,167,0,0,1-2.82-25.38S73,36.05,99.85,36.42,126.25,63.64,126.25,63.64Z"/><circle class="cls-4" cx="89.82" cy="71.81" r="2.17"/><circle class="cls-4" cx="111.11" cy="71.81" r="2.17"/><polyline class="cls-6" points="98.5 74.98 98.5 80.97 102.36 80.97"/><path d="M81.73,62.64l14.18-1.28s-1.27-3.68-7-3.08S81.73,62.64,81.73,62.64Z"/><path d="M118.28,62.64,104.1,61.36s1.27-3.68,7-3.08S118.28,62.64,118.28,62.64Z"/><path class="cls-3" d="M93.64,85.92h14s-.66,4.29-7.2,4.29S93.64,85.92,93.64,85.92Z"/><path class="cls-4" d="M77.44,77.07s4-30.11,2-35.08C79.47,42,66,53.17,77.44,77.07Z"/><path class="cls-4" d="M125.24,76.83s-4.47-28.76-3.23-37C122,39.8,135.05,51.35,125.24,76.83Z"/><path class="cls-4" d="M121.07,37.75l-12.36-1.87-1.09-2.14-6.53,1-6.52-1-1.09,2.14L81.11,37.75l-1.64,6.61.4,7.63s2-8.65,8.77-6.93c1.61.41,3.53,1.08,5.78,1.53a30.15,30.15,0,0,0,6,.7h1.37a30.23,30.23,0,0,0,6-.7,43.8,43.8,0,0,0,5.78-1.53c6.31-2.2,8.64,6.53,8.64,6.53l.53-7.23Z"/><path class="cls-4" d="M120.83,45.27a16.45,16.45,0,0,1-18.35,1.67S76.27,63.08,68.87,45.5C62.7,30.85,88.31,11,114.73,33.37Z"/><path class="cls-5" d="M86.54,130,78,133.92s-.09,14.41,23.26,13.66c23.94-.77,23.8-13.44,23.8-13.44l-9.3-4.42Z"/></g></g></svg>