<svg xmlns="http://www.w3.org/2000/svg" xmlns:xlink="http://www.w3.org/1999/xlink" viewBox="0 0 200 200"><defs><style>.cls-1{fill:#ffd9ba;}.cls-2{clip-path:url(#clip-path);}.cls-3{fill:#d3445b;}.cls-4{fill:#966050;}.cls-5{fill:#7c483d;}.cls-6,.cls-8{fill:none;stroke-linecap:round;stroke-linejoin:round;}.cls-6{stroke:#000;stroke-width:0.66px;}.cls-7{fill:#1e0b02;}.cls-8{stroke:#684138;}</style><clipPath id="clip-path"><circle class="cls-1" cx="100" cy="100" r="83.89" transform="translate(-20.73 173.65) rotate(-76.38)"/></clipPath></defs><title>Artboard 7</title><g id="OBJECTS"><circle class="cls-1" cx="100" cy="100" r="83.89" transform="translate(-20.73 173.65) rotate(-76.38)"/><g class="cls-2"><path class="cls-3" d="M156.58,173.09c-2.71-7.25-11-16.76-27.11-19.28l-30-5.88-30,5.88c-16.09,2.52-24.4,12-27.11,19.28l-6.29,28.37H162.87Z"/><path class="cls-4" d="M68.57,154.12l32.52-6.59,30.34,6.5-.67.48c-18.54,13.35-43.5,12.74-62.19-.39Z"/><path class="cls-5" d="M83.27,106a8.78,8.78,0,1,1-9.11-8.43A8.78,8.78,0,0,1,83.27,106Z"/><path class="cls-6" d="M69.51,105.17s3.47-1.73,6.86,4.3"/><path class="cls-5" d="M115.32,105.93A8.78,8.78,0,1,0,124,97.07,8.78,8.78,0,0,0,115.32,105.93Z"/><path class="cls-6" d="M129,104.42s-3.55-1.56-6.64,4.62"/><ellipse cx="98.83" cy="84.76" rx="30.19" ry="28.18" transform="translate(-0.87 1.02) rotate(-0.59)"/><path class="cls-4" d="M107.94,123.53s-3.76,3.53-7.21,4.42-6.85-1.7-6.89-1.73l-4.08-3-1.33,28.9.46.48c5.94,6.25,14.41,6.25,20.27,0l.86-.92Z"/><path class="cls-7" d="M87,119.44s5,16.83,13.73,16.57c7.14-.21,9-16,9-16Z"/><path class="cls-4" d="M122.82,89.45A101,101,0,0,1,120.35,113c-1.3,5.71-5.13,9.75-10.59,13l-1,.6a19.85,19.85,0,0,1-19.26.5h0c-6-3.2-10.27-7.48-11.65-13.57A147.53,147.53,0,0,1,74.9,90.18S72.63,64.52,98.48,64.59,122.82,89.45,122.82,89.45Z"/><polyline class="cls-8" points="96.92 102.84 96.95 106.55 99.49 106.53"/><path d="M79.22,89.68l13.66-1.37s-1.26-3.53-6.78-2.9S79.22,89.68,79.22,89.68Z"/><path d="M116.79,89.3l-13.68-1.09s1.19-3.56,6.72-3S116.79,89.3,116.79,89.3Z"/><path class="cls-7" d="M89.92,97.89a2.09,2.09,0,1,1-2.11-2.07A2.09,2.09,0,0,1,89.92,97.89Z"/><path class="cls-7" d="M110.44,97.68a2.09,2.09,0,1,1-2.11-2.08A2.08,2.08,0,0,1,110.44,97.68Z"/><path class="cls-6" d="M90.61,111.88s5.84,3.11,15.17-.15"/><path d="M122.76,83.61s-38,1.82-36.65-20.51C86.11,63.1,119.16,53.37,122.76,83.61Z"/><path d="M74.27,84.13S87.58,78.4,87.44,64.7C87.44,64.7,73.76,66.42,74.27,84.13Z"/><circle cx="97.88" cy="42.25" r="17.79"/><path d="M97.16,53.54c0,5.52-4.73,10-10.56,10S76,59.06,76,53.54a10.58,10.58,0,0,1,21.12,0Z"/><circle cx="111.38" cy="55.98" r="9.42"/></g></g></svg>