<svg xmlns="http://www.w3.org/2000/svg" xmlns:xlink="http://www.w3.org/1999/xlink" viewBox="0 0 200 200"><defs><style>.cls-1{fill:#f7d8ba;}.cls-2{clip-path:url(#clip-path);}.cls-3{fill:#e8b499;}.cls-4,.cls-7{fill:none;}.cls-4{stroke:#c47268;stroke-linecap:round;stroke-linejoin:round;stroke-width:0.69px;}.cls-5{fill:#1e0b02;}.cls-6{fill:#fff;}.cls-7{stroke:#fff;stroke-miterlimit:10;stroke-width:1.94px;}.cls-8{fill:#a74b22;}</style><clipPath id="clip-path"><circle class="cls-1" cx="100" cy="100" r="88.07"/></clipPath></defs><title>Artboard 4</title><g id="OBJECTS"><circle class="cls-1" cx="100" cy="100" r="88.07"/><g class="cls-2"><path class="cls-3" d="M83.34,71.1a9.6,9.6,0,1,1-9.87-9.32A9.61,9.61,0,0,1,83.34,71.1Z"/><path class="cls-4" d="M68.29,70s3.82-1.86,7.46,4.77"/><path class="cls-3" d="M118.37,71.37a9.6,9.6,0,1,0,9.6-9.59A9.6,9.6,0,0,0,118.37,71.37Z"/><path class="cls-4" d="M133.38,69.87s-3.87-1.75-7.32,5"/><path class="cls-3" d="M113.17,93.49s-5.41,3.82-10.34,4.76-9.73-1.92-9.79-2L87.28,93l-2.35,31.59.63.53a22.87,22.87,0,0,0,28.87.19l1.24-1Z"/><path class="cls-5" d="M84.93,89.66s5.37,17.6,17.75,17.41c10.17-.16,11.81-17.41,11.81-17.41Z"/><path class="cls-3" d="M127.53,49c.06,10.85-2.21,25.94-3.72,32.59S116.6,92.62,110.6,96.31l-1.1.67c-6.35,3.9-11.6,4-18.09.34h0c-6.55-3.73-12.63-8.67-14.07-15.64C74.72,69,72.73,61.88,72,55.15c-1.16-11.07-.7-34.9,27.69-34.89S127.53,49,127.53,49Z"/><path class="cls-5" d="M90.66,63.27A2.29,2.29,0,1,1,88.38,61,2.28,2.28,0,0,1,90.66,63.27Z"/><path class="cls-5" d="M113.11,63.27A2.29,2.29,0,1,1,110.82,61,2.29,2.29,0,0,1,113.11,63.27Z"/><polyline class="cls-4" points="97.52 69.26 97.52 72.92 100.49 72.92"/><path d="M79.86,53.61,94.8,52.26S93.46,48.39,87.42,49,79.86,53.61,79.86,53.61Z"/><path d="M118.37,53.61l-14.94-1.35s1.34-3.87,7.38-3.24S118.37,53.61,118.37,53.61Z"/><path class="cls-6" d="M174.3,191.17H25.7c2.71-11.25,5.5-21.25,8.25-29,4.09-11.49,10-18.22,14.82-22a25.78,25.78,0,0,1,8.67-4.82L67.76,131,133,131l9.57,4.25s15.32,3.87,23.49,26.87C168.8,169.92,171.59,179.92,174.3,191.17Z"/><path class="cls-3" d="M101.16,117.21,133,131s-32.71,29.56-65.24-.07Z"/><path class="cls-7" d="M67.76,130.94s11.33,13.41,32.54,13.41S133,131,133,131"/><path class="cls-8" d="M124.55,68.84s-.5-.27-2.25,2.53-3.17,10.32-3.17,10.32a14,14,0,0,0-6-5.76c-4-2.06-12.41-.92-13.84-.71-2.22-.38-7.48-1-10.86.71a14,14,0,0,0-6,5.76s-1.42-7.51-3.17-10.32-2.25-2.53-2.25-2.53-.92,14.6,3,23.28c3.44,7.62,16.66,10.77,19.8,10.93,0,0,17.92-2.25,21.84-10.93S124.55,68.84,124.55,68.84Z"/><path class="cls-6" d="M92.41,78.15h14.74s-.69,4.51-7.59,4.51S92.41,78.15,92.41,78.15Z"/></g></g></svg>