<svg xmlns="http://www.w3.org/2000/svg" xmlns:xlink="http://www.w3.org/1999/xlink" viewBox="0 0 200 200"><defs><style>.cls-1{fill:#f7d8ba;}.cls-2,.cls-7,.cls-9{fill:none;}.cls-3{clip-path:url(#clip-path);}.cls-4{fill:#d46919;}.cls-5{fill:#fff;}.cls-6{fill:#e0a78f;}.cls-7{stroke:#b9635e;}.cls-7,.cls-9{stroke-linecap:round;stroke-linejoin:round;stroke-width:0.66px;}.cls-8{fill:#1e0b02;}.cls-9{stroke:#000;}.cls-10{clip-path:url(#clip-path-2);}.cls-11{fill:#ef758d;stroke:#ef758d;stroke-miterlimit:10;}</style><clipPath id="clip-path"><circle class="cls-1" cx="100" cy="100" r="89.36" transform="translate(-41.42 100) rotate(-45)"/></clipPath><clipPath id="clip-path-2"><path class="cls-2" d="M166.63,153.58c-2.79-7.5-11.1-17.23-27-20.38l-.54.39c-19.75,14.36-46.33,13.71-66.24-.42l1-.34c-17.14,2.72-26,13-28.88,20.75l-6.69,30.54h135Z"/></clipPath></defs><title>Artboard 2</title><g id="OBJECTS"><circle class="cls-1" cx="100" cy="100" r="89.36" transform="translate(-41.42 100) rotate(-45)"/><g class="cls-3"><path class="cls-4" d="M73.32,54.79s-4,23-31.74,39.74C12,112.36,28.88,169,80.6,170.24c56.19,1.36,84.74-68.84,52.27-126.16Z"/><path class="cls-5" d="M166.63,153.35c-2.9-7.71-11.74-17.84-28.88-20.53l-31.94-6.27-31.93,6.27c-17.14,2.69-26,12.82-28.88,20.53l-6.69,30.22h29.3L69.75,186l35.56,7,36.56-9.44h31.45Z"/><path class="cls-6" d="M72.88,133.15l34.64-7,32.31,6.92-.71.52c-19.75,14.21-46.33,13.56-66.24-.42Z"/><path class="cls-6" d="M88.54,81.91a9.35,9.35,0,1,1-9.7-9A9.35,9.35,0,0,1,88.54,81.91Z"/><path class="cls-7" d="M73.88,81s3.7-1.85,7.3,4.57"/><path class="cls-6" d="M122.67,81.83a9.35,9.35,0,1,0,9.25-9.45A9.35,9.35,0,0,0,122.67,81.83Z"/><path class="cls-7" d="M137.27,80.21s-3.78-1.66-7.07,4.93"/><ellipse class="cls-4" cx="105.11" cy="59.27" rx="32.15" ry="30.01" transform="translate(-0.61 1.09) rotate(-0.59)"/><path class="cls-6" d="M114.82,100.57s-4,3.75-7.68,4.7-7.3-1.8-7.35-1.84l-4.34-3.18L94,131l.48.51c6.33,6.66,15.35,6.66,21.6,0l.91-1Z"/><path class="cls-8" d="M92.5,96.21s5.37,17.92,14.62,17.65c7.61-.22,9.55-17,9.55-17Z"/><path class="cls-6" d="M130.66,64.26A106.7,106.7,0,0,1,128,89.34c-1.38,6.09-5.47,10.39-11.28,13.89l-1.06.64a21.16,21.16,0,0,1-20.52.53h0c-6.41-3.41-10.93-8-12.4-14.45a156.79,156.79,0,0,1-3.15-24.9s-2.41-27.33,25.12-27.26S130.66,64.26,130.66,64.26Z"/><polyline class="cls-7" points="103.07 78.53 103.11 82.48 105.81 82.45"/><path class="cls-4" d="M84.23,64.52l14.54-1.47S97.43,59.3,91.55,60,84.23,64.52,84.23,64.52Z"/><path class="cls-4" d="M124.24,64.1l-14.57-1.16s1.26-3.78,7.15-3.23S124.24,64.1,124.24,64.1Z"/><path class="cls-8" d="M95.62,73.25a2.23,2.23,0,1,1-2.25-2.2A2.22,2.22,0,0,1,95.62,73.25Z"/><path class="cls-8" d="M117.48,73a2.22,2.22,0,0,1-2.2,2.25,2.23,2.23,0,1,1,2.2-2.25Z"/><path class="cls-9" d="M96.35,88.16s6.23,3.31,16.17-.16"/><path class="cls-4" d="M130.6,58.05S90.1,60,91.56,36.21C91.56,36.21,126.76,25.83,130.6,58.05Z"/><path class="cls-4" d="M79,58.6s14.18-6.1,14-20.69C93,37.91,78.4,39.74,79,58.6Z"/><g class="cls-10"><line class="cls-11" x1="34.43" y1="136.53" x2="176.21" y2="136.53"/><line class="cls-11" x1="34.43" y1="143.94" x2="176.21" y2="143.94"/><line class="cls-11" x1="34.43" y1="151.34" x2="176.21" y2="151.34"/><line class="cls-11" x1="34.43" y1="158.74" x2="176.21" y2="158.74"/><line class="cls-11" x1="34.43" y1="166.15" x2="176.21" y2="166.15"/><line class="cls-11" x1="34.43" y1="173.55" x2="176.21" y2="173.55"/><line class="cls-11" x1="34.43" y1="180.95" x2="176.21" y2="180.95"/><line class="cls-11" x1="34.43" y1="188.36" x2="176.21" y2="188.36"/></g></g></g></svg>