<svg xmlns="http://www.w3.org/2000/svg" xmlns:xlink="http://www.w3.org/1999/xlink" viewBox="0 0 200 200"><defs><style>.cls-1{fill:#f7d8ba;}.cls-2{clip-path:url(#clip-path);}.cls-3{fill:#4570b4;}.cls-4{fill:#c67d69;}.cls-5{fill:none;stroke:#a8523f;stroke-linecap:round;stroke-linejoin:round;stroke-width:0.75px;}.cls-6{fill:#1e0b02;}.cls-7{fill:#fff;}</style><clipPath id="clip-path"><circle class="cls-1" cx="100" cy="100" r="81.78" transform="translate(-41.42 100) rotate(-45)"/></clipPath></defs><title>Artboard 5</title><g id="OBJECTS"><circle class="cls-1" cx="100" cy="100" r="81.78" transform="translate(-41.42 100) rotate(-45)"/><g class="cls-2"><path class="cls-3" d="M179.08,186.12H21.3c7.27-32.66,26.8-39.18,26.8-39.18l37.63-17.6,14.27-.13h.39l14.27.13,37.64,17.6S171.81,153.46,179.08,186.12Z"/><path class="cls-4" d="M84.25,79.68A8.91,8.91,0,1,1,75.09,71,8.91,8.91,0,0,1,84.25,79.68Z"/><path class="cls-5" d="M70.28,78.68s3.55-1.72,6.93,4.43"/><circle class="cls-4" cx="125.7" cy="79.94" r="8.91"/><path class="cls-5" d="M130.72,78.54s-3.59-1.62-6.79,4.62"/><path class="cls-4" d="M112,100.47s-5,3.54-9.6,4.42-9-1.78-9.09-1.81S87.92,100,87.92,100l-2.19,29.33.59.49a21.23,21.23,0,0,0,26.8.18l1.15-.92Z"/><path class="cls-6" d="M85.73,96.92s5,16.34,16.48,16.16c9.45-.15,11-16.16,11-16.16Z"/><path class="cls-4" d="M124.58,64.42a110.71,110.71,0,0,1-2.75,25c-1.37,6-5.31,10.29-10.88,13.72l-1,.62a19.41,19.41,0,0,1-19.57.31h0C84.29,100.56,80,96,78.68,89.5a162.93,162.93,0,0,1-2.76-24.83S72.5,37.42,98.75,37.78,124.58,64.42,124.58,64.42Z"/><circle class="cls-6" cx="88.93" cy="72.41" r="2.12"/><circle class="cls-6" cx="109.77" cy="72.41" r="2.12"/><polyline class="cls-5" points="97.42 75.52 97.42 81.37 101.21 81.37"/><path d="M81,63.44,94.9,62.19s-1.25-3.6-6.86-3S81,63.44,81,63.44Z"/><path d="M116.79,63.44l-13.88-1.25s1.24-3.6,6.85-3S116.79,63.44,116.79,63.44Z"/><path class="cls-7" d="M92.68,86.22h13.68s-.64,4.2-7,4.2S92.68,86.22,92.68,86.22Z"/><path class="cls-6" d="M76.82,77.56s3.88-29.47,2-34.32C78.8,43.24,65.59,54.17,76.82,77.56Z"/><path class="cls-6" d="M123.59,77.33s-4.37-28.15-3.16-36.24C120.43,41.09,133.2,52.39,123.59,77.33Z"/><path class="cls-6" d="M119.52,34.87l-12.1-2.39-1.07-2.72L100,31l-6.39-1.26-1.06,2.72-12.1,2.39L78.8,43.3,79.2,53s1.92-11,8.58-8.83c1.57.52,3.46,1.37,5.66,2A22.86,22.86,0,0,0,99.3,47h1.33a23,23,0,0,0,5.87-.89,36.77,36.77,0,0,0,5.65-2c6.18-2.8,8.46,8.33,8.46,8.33l.52-9.22Z"/><path class="cls-4" d="M85.73,129.33l-8.41,3.87s-.09,14.09,22.76,13.36c23.42-.75,23.29-13.15,23.29-13.15l-9.1-4.33Z"/><path class="cls-6" d="M76.28,50.72A5.31,5.31,0,1,1,71,45.41,5.31,5.31,0,0,1,76.28,50.72Z"/><path class="cls-6" d="M76.38,60a4.47,4.47,0,1,1-4.47-4.47A4.47,4.47,0,0,1,76.38,60Z"/><path class="cls-6" d="M132.64,59.21a4.47,4.47,0,1,1-4.47-4.47A4.47,4.47,0,0,1,132.64,59.21Z"/><path class="cls-6" d="M80.23,43.24a5.31,5.31,0,1,1-5.31-5.31A5.31,5.31,0,0,1,80.23,43.24Z"/><path class="cls-6" d="M85.55,36.19a5.32,5.32,0,1,1-5.32-5.32A5.32,5.32,0,0,1,85.55,36.19Z"/><path class="cls-6" d="M93.27,32.08A5.31,5.31,0,1,1,88,26.77,5.31,5.31,0,0,1,93.27,32.08Z"/><path class="cls-6" d="M101.1,30.3A5.32,5.32,0,1,1,95.78,25,5.32,5.32,0,0,1,101.1,30.3Z"/><path class="cls-6" d="M124.35,50.72a5.32,5.32,0,1,0,5.32-5.31A5.31,5.31,0,0,0,124.35,50.72Z"/><path class="cls-6" d="M120.4,43.24a5.32,5.32,0,1,0,5.31-5.31A5.31,5.31,0,0,0,120.4,43.24Z"/><path class="cls-6" d="M115.09,36.19a5.31,5.31,0,1,0,5.31-5.32A5.31,5.31,0,0,0,115.09,36.19Z"/><path class="cls-6" d="M107.37,32.08a5.31,5.31,0,1,0,5.31-5.31A5.31,5.31,0,0,0,107.37,32.08Z"/><path class="cls-6" d="M99.54,30.3A5.31,5.31,0,1,0,104.85,25,5.31,5.31,0,0,0,99.54,30.3Z"/></g></g></svg>