<svg xmlns="http://www.w3.org/2000/svg" xmlns:xlink="http://www.w3.org/1999/xlink" viewBox="0 0 500 500"><defs><style>.cls-1{fill:#f7d8ba;}.cls-10,.cls-16,.cls-17,.cls-19,.cls-2,.cls-22,.cls-25,.cls-36,.cls-8{fill:none;}.cls-3{fill:#ffd9ba;}.cls-18,.cls-4{fill:#fff;}.cls-5{clip-path:url(#clip-path);}.cls-6{fill:#d46919;}.cls-7{fill:#e0a78f;}.cls-8{stroke:#b9635e;}.cls-10,.cls-16,.cls-17,.cls-22,.cls-36,.cls-8{stroke-linecap:round;stroke-linejoin:round;}.cls-10,.cls-8{stroke-width:0.66px;}.cls-9{fill:#1e0b02;}.cls-10{stroke:#000;}.cls-11{clip-path:url(#clip-path-2);}.cls-12,.cls-24{fill:#ef758d;}.cls-12{stroke:#ef758d;}.cls-12,.cls-19,.cls-25{stroke-miterlimit:10;}.cls-13{clip-path:url(#clip-path-3);}.cls-14{fill:#d3445b;}.cls-15{fill:#e8b499;}.cls-16{stroke:#c47268;stroke-width:0.69px;}.cls-17{stroke:#1e0b02;stroke-width:0.96px;}.cls-18{opacity:0.23;}.cls-19,.cls-25{stroke:#fff;}.cls-19{stroke-width:0.49px;}.cls-20{clip-path:url(#clip-path-4);}.cls-21{fill:#c67d69;}.cls-22{stroke:#a8523f;stroke-width:0.75px;}.cls-23{clip-path:url(#clip-path-5);}.cls-25{stroke-width:1.94px;}.cls-26{clip-path:url(#clip-path-6);}.cls-27{fill:#a74b22;}.cls-28{fill:#28466d;}.cls-29{clip-path:url(#clip-path-7);}.cls-30{clip-path:url(#clip-path-8);}.cls-31{clip-path:url(#clip-path-9);}.cls-32{fill:#4570b4;}.cls-33{clip-path:url(#clip-path-10);}.cls-34{fill:#966050;}.cls-35{fill:#7c483d;}.cls-36{stroke:#684138;}</style><clipPath id="clip-path"><circle class="cls-1" cx="113.17" cy="96.47" r="56.54" transform="translate(-5.86 185.6) rotate(-77.27)"/></clipPath><clipPath id="clip-path-2"><path class="cls-2" d="M155.33,130.37c-1.76-4.74-7-10.91-17.06-12.9l-.34.25c-12.5,9.09-29.32,8.67-41.92-.27l.63-.21C85.8,119,80.2,125.44,78.37,130.37l-4.23,19.32h85.43Z"/></clipPath><clipPath id="clip-path-3"><circle class="cls-1" cx="248.95" cy="96.47" r="56.54" transform="translate(99.1 317.44) rotate(-77.04)"/></clipPath><clipPath id="clip-path-4"><circle class="cls-1" cx="386.73" cy="96.47" r="56.54" transform="translate(45.06 301.71) rotate(-45)"/></clipPath><clipPath id="clip-path-5"><circle class="cls-1" cx="113.12" cy="255.13" r="56.54" transform="translate(-160.67 309.24) rotate(-77.27)"/></clipPath><clipPath id="clip-path-6"><circle class="cls-1" cx="249.43" cy="255.13" r="56.54" transform="translate(-55.15 440.98) rotate(-77.04)"/></clipPath><clipPath id="clip-path-7"><circle class="cls-1" cx="386.08" cy="256.05" r="56.54"/></clipPath><clipPath id="clip-path-8"><circle class="cls-3" cx="113.61" cy="403.46" r="56.54" transform="translate(-305.32 416.96) rotate(-76.12)"/></clipPath><clipPath id="clip-path-9"><circle class="cls-1" cx="249.3" cy="403.46" r="56.54" transform="translate(-212.27 294.45) rotate(-45)"/></clipPath><clipPath id="clip-path-10"><circle class="cls-3" cx="386.88" cy="403.53" r="56.54" transform="translate(-96.39 684.53) rotate(-76.38)"/></clipPath></defs><title>Artboard 1</title><g id="BACKGROUND"><rect class="cls-4" x="-0.25" y="-0.32" width="500" height="500"/></g><g id="OBJECTS"><circle class="cls-1" cx="113.17" cy="96.47" r="56.54" transform="translate(-5.86 185.6) rotate(-77.27)"/><g class="cls-5"><path class="cls-6" d="M96.29,67.86S93.74,82.43,76.21,93c-18.69,11.28-8,47.11,24.69,47.9,35.55.86,53.62-43.56,33.07-79.83Z"/><path class="cls-4" d="M155.33,130.22c-1.83-4.88-7.43-11.29-18.27-13l-20.21-4-20.21,4c-10.84,1.7-16.44,8.11-18.27,13l-4.23,19.12H92.68L94,150.89l22.5,4.43,23.14-6h19.9Z"/><path class="cls-7" d="M96,117.44,117.93,113l20.45,4.38-.45.33c-12.5,9-29.32,8.58-41.92-.27Z"/><path class="cls-7" d="M105.92,85a5.91,5.91,0,1,1-6.14-5.68A5.91,5.91,0,0,1,105.92,85Z"/><path class="cls-8" d="M96.65,84.45s2.34-1.17,4.62,2.9"/><path class="cls-7" d="M127.52,85a5.92,5.92,0,1,0,5.85-6A5.92,5.92,0,0,0,127.52,85Z"/><path class="cls-8" d="M136.76,84s-2.4-1.06-4.48,3.11"/><ellipse class="cls-6" cx="116.41" cy="70.69" rx="20.35" ry="18.99" transform="translate(-0.72 1.21) rotate(-0.59)"/><path class="cls-7" d="M122.55,96.83a14.13,14.13,0,0,1-4.86,3c-2.33.6-4.62-1.14-4.65-1.16l-2.75-2-.89,19.48.31.32c4,4.22,9.71,4.22,13.66,0l.58-.61Z"/><path class="cls-9" d="M108.43,94.07s3.39,11.34,9.25,11.17c4.81-.14,6-10.76,6-10.76Z"/><path class="cls-7" d="M132.57,73.85a67.76,67.76,0,0,1-1.66,15.87c-.87,3.85-3.46,6.58-7.14,8.79l-.67.4a13.35,13.35,0,0,1-13,.34h0c-4.06-2.16-6.92-5-7.85-9.14a99,99,0,0,1-2-15.76S98.75,57.06,116.17,57.1,132.57,73.85,132.57,73.85Z"/><polyline class="cls-8" points="115.12 82.88 115.14 85.38 116.85 85.36"/><path class="cls-6" d="M103.19,74l9.21-.93s-.85-2.38-4.57-2S103.19,74,103.19,74Z"/><path class="cls-6" d="M128.51,73.75,119.29,73s.8-2.4,4.53-2S128.51,73.75,128.51,73.75Z"/><path class="cls-9" d="M110.4,79.54A1.41,1.41,0,1,1,109,78.15,1.39,1.39,0,0,1,110.4,79.54Z"/><path class="cls-9" d="M124.23,79.4A1.41,1.41,0,1,1,122.81,78,1.39,1.39,0,0,1,124.23,79.4Z"/><path class="cls-10" d="M110.87,89s3.93,2.09,10.22-.11"/><path class="cls-6" d="M132.53,69.92s-25.62,1.23-24.7-13.82C107.83,56.1,130.11,49.54,132.53,69.92Z"/><path class="cls-6" d="M99.86,70.27s9-3.86,8.87-13.09C108.73,57.18,99.51,58.34,99.86,70.27Z"/><g class="cls-11"><line class="cls-12" x1="71.68" y1="119.58" x2="161.4" y2="119.58"/><line class="cls-12" x1="71.68" y1="124.27" x2="161.4" y2="124.27"/><line class="cls-12" x1="71.68" y1="128.95" x2="161.4" y2="128.95"/><line class="cls-12" x1="71.68" y1="133.64" x2="161.4" y2="133.64"/><line class="cls-12" x1="71.68" y1="138.32" x2="161.4" y2="138.32"/><line class="cls-12" x1="71.68" y1="143" x2="161.4" y2="143"/><line class="cls-12" x1="71.68" y1="147.69" x2="161.4" y2="147.69"/><line class="cls-12" x1="71.68" y1="152.37" x2="161.4" y2="152.37"/></g></g><circle class="cls-1" cx="248.95" cy="96.47" r="56.54" transform="translate(99.1 317.44) rotate(-77.04)"/><g class="cls-13"><path class="cls-14" d="M226.86,120.89l-2.4,30.66H205c2-4.76,4.41-10.49,6.6-16.11,4.93-12.7,14.29-14.4,15.19-14.54Z"/><path class="cls-14" d="M296.37,151.55h-20l-3.19-31h0c.65.08,11,1.71,16.42,14.89C292,141.34,294.44,147,296.37,151.55Z"/><path class="cls-14" d="M278.4,151.55,249,157.4l-26.07-5.85.1-29a17.48,17.48,0,0,1,3.81-1.68,34.08,34.08,0,0,1,6.35-1.31l17.48,1.76,17.48-1.76a34.18,34.18,0,0,1,5.09,1h0a19.16,19.16,0,0,1,5,2Z"/><path class="cls-15" d="M226.86,120.89l20.6-5.42h7.11l18.62,5.07h0c-9.52,8.93-33.17,16.25-45.26.76Z"/><path class="cls-9" d="M280.68,102a13,13,0,0,1,.34-4.86,21.57,21.57,0,0,0-4.5-19.82c-3.8-4.59-4.74-11.38-4.74-11.38h0C269,56.78,259.53,50.4,250.93,50.4s-18,6-20.81,15.21h0s-1.26,7.27-4.78,11.74c-4.07,5.17-6.58,11.85-4.5,19.82a13.26,13.26,0,0,1,.35,4.86,6.84,6.84,0,0,1-1.16,3.32h61.81A6.64,6.64,0,0,1,280.68,102Z"/><path class="cls-15" d="M240.22,84.55A6.05,6.05,0,1,1,234,78.67,6.06,6.06,0,0,1,240.22,84.55Z"/><path class="cls-16" d="M230.73,83.87s2.41-1.18,4.7,3"/><path class="cls-15" d="M262.31,84.72a6.05,6.05,0,1,0,6.05-6A6.05,6.05,0,0,0,262.31,84.72Z"/><path class="cls-16" d="M271.77,83.77s-2.44-1.1-4.61,3.14"/><circle class="cls-9" cx="251.09" cy="73.19" r="19"/><path class="cls-15" d="M257.11,96.79a14.47,14.47,0,0,1-5,3c-2.39.59-4.71-1.22-4.74-1.24l-2.79-2.09-1.12,19.91.31.33c4.05,4.36,9.89,4.42,14,.15l.6-.63Z"/><path class="cls-9" d="M242.68,93.83S246,105.46,252,105.35c4.93-.1,6.3-10.95,6.3-10.95Z"/><path class="cls-15" d="M267.6,73.4a69.73,69.73,0,0,1-1.87,16.22c-.94,3.93-3.61,6.68-7.4,8.91l-.69.41a13.69,13.69,0,0,1-13.28.2h0c-4.13-2.25-7-5.23-7.93-9.43a101.31,101.31,0,0,1-1.87-16.14S233.18,55.86,251,56.09,267.6,73.4,267.6,73.4Z"/><polyline class="cls-16" points="249.64 83.1 249.64 85.69 251.39 85.69"/><path d="M237.54,73.26l9.42-.85s-.84-2.44-4.65-2S237.54,73.26,237.54,73.26Z"/><path d="M263.44,73.26,254,72.41s.84-2.44,4.65-2S263.44,73.26,263.44,73.26Z"/><path class="cls-4" d="M245.37,88.08h10.29s-.39,2.69-5.33,2.69C246.28,90.77,245.37,88.08,245.37,88.08Z"/><path class="cls-17" d="M245.85,79.61s-2.43-2-4.57,0"/><path class="cls-17" d="M259.62,79.61a3.18,3.18,0,0,0-4.46,0"/><path class="cls-18" d="M241.29,73.1l6.9,9.37s-2.08,4-5.4,3.54l-7-9.15S237.71,72.84,241.29,73.1Z"/><path class="cls-18" d="M258.27,73.1l6.91,9.37s-2.09,4-5.4,3.54l-7-9.15S254.69,72.84,258.27,73.1Z"/><path class="cls-19" d="M248.74,79.61A6.75,6.75,0,1,1,242,72.86,6.75,6.75,0,0,1,248.74,79.61Z"/><path class="cls-19" d="M265.74,79.61A6.75,6.75,0,1,1,259,72.86,6.75,6.75,0,0,1,265.74,79.61Z"/><path class="cls-19" d="M248.74,79.61a5.27,5.27,0,0,1,3.5,0"/><path class="cls-9" d="M232.84,69.38s15.88-3,19.16-14.88C252,54.5,235.11,48.5,232.84,69.38Z"/><path class="cls-9" d="M267.6,69.38s-15.89-3-19.17-14.88C248.43,54.5,265.33,48.5,267.6,69.38Z"/></g><circle class="cls-1" cx="386.73" cy="96.47" r="56.54" transform="translate(45.06 301.71) rotate(-45)"/><g class="cls-20"><path class="cls-4" d="M442.17,156H333.08c5-22.58,18.53-27.09,18.53-27.09l26-12.17,9.86-.09h.27l9.87.09,26,12.17S437.14,133.43,442.17,156Z"/><path class="cls-9" d="M393.59,51.89s9.08-4,12.29,3.6c3.1,7.37-9.2,14.38-9.2,14.38Z"/><path class="cls-21" d="M376.61,82.42a6.16,6.16,0,1,1-6.34-6A6.17,6.17,0,0,1,376.61,82.42Z"/><path class="cls-22" d="M367,81.73s2.45-1.19,4.78,3.06"/><circle class="cls-21" cx="405.26" cy="82.59" r="6.16"/><path class="cls-22" d="M408.73,81.63s-2.48-1.12-4.69,3.2"/><path class="cls-21" d="M395.76,96.79a21,21,0,0,1-6.64,3.06,10.06,10.06,0,0,1-6.28-1.26l-3.7-2.12-1.51,20.28.41.33a14.68,14.68,0,0,0,18.53.13l.79-.64Z"/><path class="cls-9" d="M377.63,94.33s3.45,11.3,11.39,11.18c6.53-.1,7.59-11.18,7.59-11.18Z"/><path class="cls-21" d="M404.49,71.87a76.62,76.62,0,0,1-1.9,17.25c-.95,4.18-3.67,7.11-7.53,9.48l-.7.43a13.42,13.42,0,0,1-13.53.22h0c-4.2-2.4-7.15-5.57-8.07-10A111.43,111.43,0,0,1,370.85,72s-2.37-18.84,15.78-18.59S404.49,71.87,404.49,71.87Z"/><circle class="cls-9" cx="379.84" cy="77.39" r="1.47"/><circle class="cls-9" cx="394.25" cy="77.39" r="1.47"/><polyline class="cls-22" points="385.71 79.54 385.71 83.59 388.33 83.59"/><path d="M374.37,71.19l9.6-.87s-.86-2.48-4.74-2.08S374.37,71.19,374.37,71.19Z"/><path d="M399.1,71.19l-9.59-.87s.86-2.48,4.73-2.08S399.1,71.19,399.1,71.19Z"/><path class="cls-4" d="M382.43,86.94h9.46s-.44,2.9-4.87,2.9S382.43,86.94,382.43,86.94Z"/><path class="cls-9" d="M371.47,81s2.68-20.37,1.37-23.73C372.84,57.22,363.7,64.78,371.47,81Z"/><path class="cls-9" d="M403.81,80.79s-3-19.46-2.19-25.05C401.62,55.74,410.44,63.55,403.81,80.79Z"/><path class="cls-9" d="M401,54.35l-8.37-1.27-.73-1.44-4.42.66-4.41-.66-.74,1.44L374,54.35l-1.11,4.47.27,5.16s1.33-5.85,5.94-4.68c1.08.27,2.39.73,3.91,1a21.22,21.22,0,0,0,4.05.48h.92a21.42,21.42,0,0,0,4.06-.48,29.33,29.33,0,0,0,3.91-1c4.27-1.49,5.84,4.42,5.84,4.42l.36-4.9Z"/><path class="cls-9" d="M400.82,59.44a11.12,11.12,0,0,1-12.41,1.13s-17.73,10.92-22.74-1c-4.17-9.92,13.15-23.37,31-8.21Z"/><path class="cls-21" d="M377.63,116.75l-5.82,2.67s-.06,9.74,15.74,9.24c16.19-.52,16.1-9.1,16.1-9.1l-6.29-3Z"/></g><circle class="cls-1" cx="113.12" cy="255.13" r="56.54" transform="translate(-160.67 309.24) rotate(-77.27)"/><g class="cls-23"><path class="cls-9" d="M101.84,207s7.94-10.75,22-3.58c15.43,7.86,7.1,24.81,7.1,24.81L97.79,222Z"/><path class="cls-9" d="M95.21,228.32s-8.67-17,6.63-21.31l2.75,9.13Z"/><path class="cls-15" d="M102.56,236.18a6.16,6.16,0,1,1-6.33-6A6.15,6.15,0,0,1,102.56,236.18Z"/><path class="cls-16" d="M92.91,235.49s2.45-1.19,4.78,3.06"/><path class="cls-15" d="M125.06,236.36a6.16,6.16,0,1,0,6.16-6.17A6.16,6.16,0,0,0,125.06,236.36Z"/><path class="cls-16" d="M134.69,235.39s-2.48-1.12-4.7,3.2"/><path class="cls-15" d="M121.71,250.55a20.87,20.87,0,0,1-6.63,3.06,10.1,10.1,0,0,1-6.29-1.26l-3.69-2.12-1.52,20.28.41.34a14.7,14.7,0,0,0,18.53.12l.8-.64Z"/><path class="cls-9" d="M103.58,248.1S107,259.4,115,259.27c6.53-.1,7.58-11.17,7.58-11.17Z"/><path class="cls-15" d="M130.45,225.63a77.2,77.2,0,0,1-1.9,17.25c-1,4.18-4.63,7.11-8.49,9.48l-.7.43c-4.08,2.51-7.45,2.59-11.62.22h0c-4.2-2.4-8.1-5.57-9-10A112.75,112.75,0,0,1,96.8,225.8S94.44,207,112.58,207.21,130.45,225.63,130.45,225.63Z"/><path class="cls-9" d="M107.27,231.16a1.47,1.47,0,1,1-1.47-1.47A1.46,1.46,0,0,1,107.27,231.16Z"/><path class="cls-9" d="M121.67,231.16a1.47,1.47,0,1,1-1.47-1.47A1.46,1.46,0,0,1,121.67,231.16Z"/><polyline class="cls-16" points="111.67 235 111.67 237.35 113.58 237.35"/><path d="M100.33,225l9.59-.86s-.86-2.49-4.74-2.09S100.33,225,100.33,225Z"/><path d="M125.06,225l-9.6-.86s.86-2.49,4.74-2.09S125.06,225,125.06,225Z"/><path class="cls-4" d="M108.39,240.7h9.46s-.44,2.9-4.87,2.9S108.39,240.7,108.39,240.7Z"/><path class="cls-9" d="M97.42,234.72s.71-23.08.42-23.74C97.84,211,89.66,218.54,97.42,234.72Z"/><path class="cls-9" d="M129.76,234.55l-1.23-25.05S136.4,217.31,129.76,234.55Z"/><path class="cls-9" d="M105,208.94s-5.62,1.52-5.43,7.05S96,227,96,227l-1.71-5.52S93,211.13,105,208.94Z"/><path class="cls-9" d="M103.59,209.4s4.22-2.39,8.4,2.87c3.58,4.49,13,9.12,18.58,4.71,0,0-3.56-12.71-17.42-12.46S103.59,209.4,103.59,209.4Z"/><path class="cls-24" d="M161,313.26H65.56c1.74-7.22,3.53-13.64,5.3-18.64,2.62-7.38,6.39-11.7,9.51-14.16a16.54,16.54,0,0,1,5.57-3.09l6.62-2.77,41.88,0,6.14,2.73s9.84,2.48,15.08,17.25C157.43,299.62,159.22,306,161,313.26Z"/><path class="cls-15" d="M114,265.78l20.43,8.86s-21,19-41.88,0Z"/><path class="cls-25" d="M92.56,274.6a28.45,28.45,0,0,0,20.89,8.61,28.87,28.87,0,0,0,21-8.57"/></g><circle class="cls-1" cx="249.43" cy="255.13" r="56.54" transform="translate(-55.15 440.98) rotate(-77.04)"/><g class="cls-26"><path class="cls-27" d="M272,222.26a22.86,22.86,0,0,0-9-8.79,20.47,20.47,0,0,0-13.2-2.08h0a20.48,20.48,0,0,0-13.21,2.08,22.86,22.86,0,0,0-9,8.79c-6.42,11.15-6.28,46.15-6.28,46.15l27,1.68v.17l1.42-.08,1.43.08v-.17l27-1.68S278.46,233.41,272,222.26Z"/><path class="cls-28" d="M288.69,291.34c-1.83-4.88-7.43-11.29-18.27-13l-20.21-4-20.21,4c-10.84,1.7-16.44,8.11-18.27,13l-4.24,19.12h85.43Z"/><path class="cls-7" d="M229.37,278.56l21.92-4.45,20.44,4.39-.45.32c-12.49,9-29.31,8.59-41.91-.26Z"/><path class="cls-7" d="M239.28,246.14a5.91,5.91,0,1,1-6.14-5.68A5.93,5.93,0,0,1,239.28,246.14Z"/><path class="cls-8" d="M230,245.57s2.34-1.17,4.63,2.89"/><path class="cls-7" d="M260.87,246.08a5.92,5.92,0,1,0,5.86-6A5.93,5.93,0,0,0,260.87,246.08Z"/><path class="cls-8" d="M270.11,245.06s-2.39-1.05-4.47,3.12"/><ellipse class="cls-27" cx="249.76" cy="231.81" rx="20.35" ry="18.99" transform="translate(-2.38 2.59) rotate(-0.59)"/><path class="cls-7" d="M255.91,257.94a14.18,14.18,0,0,1-4.87,3c-2.32.6-4.61-1.14-4.64-1.17l-2.75-2-.89,19.48.3.32c4,4.21,9.72,4.21,13.67,0l.58-.62Z"/><path class="cls-9" d="M241.78,255.18s3.4,11.35,9.26,11.17c4.81-.14,6-10.76,6-10.76Z"/><path class="cls-7" d="M265.93,235a67.76,67.76,0,0,1-1.66,15.87c-.88,3.85-3.46,6.57-7.14,8.79l-.67.4a13.42,13.42,0,0,1-13,.34h0c-4.05-2.16-6.91-5-7.84-9.15a98.81,98.81,0,0,1-2-15.75s-1.53-17.3,15.89-17.25S265.93,235,265.93,235Z"/><polyline class="cls-8" points="248.47 244 248.5 246.5 250.21 246.48"/><path d="M236.55,235.13l9.2-.92s-.85-2.38-4.57-2S236.55,235.13,236.55,235.13Z"/><path d="M261.87,234.87l-9.22-.74s.8-2.39,4.53-2S261.87,234.87,261.87,234.87Z"/><path class="cls-9" d="M243.76,240.66a1.41,1.41,0,1,1-1.42-1.4A1.42,1.42,0,0,1,243.76,240.66Z"/><path class="cls-9" d="M257.59,240.52a1.41,1.41,0,1,1-1.42-1.4A1.41,1.41,0,0,1,257.59,240.52Z"/><path class="cls-10" d="M244.22,250.09s3.94,2.09,10.23-.1"/><path class="cls-27" d="M232.31,232.05a31.07,31.07,0,0,1,8.63-2l.74-6.43,1.64,6.57h6.89l1.18-4.64,1.26,4.64,8.22.43,1-4.07.66,4.36,5.34.36s-3.05-14-15.69-15.29S231.38,224.27,232.31,232.05Z"/></g><circle class="cls-1" cx="386.08" cy="256.05" r="56.54"/><g class="cls-29"><path class="cls-15" d="M375.38,237.5a6.16,6.16,0,1,1-6.33-6A6.17,6.17,0,0,1,375.38,237.5Z"/><path class="cls-16" d="M365.73,236.81s2.45-1.19,4.78,3.06"/><path class="cls-15" d="M397.88,237.68a6.16,6.16,0,1,0,6.16-6.16A6.16,6.16,0,0,0,397.88,237.68Z"/><path class="cls-16" d="M407.51,236.71s-2.48-1.12-4.7,3.2"/><path class="cls-15" d="M394.53,251.87a20.64,20.64,0,0,1-6.63,3.06,10.2,10.2,0,0,1-6.29-1.25l-3.69-2.13-1.52,20.28.41.34a14.68,14.68,0,0,0,18.53.12l.8-.63Z"/><path class="cls-9" d="M376.4,249.42s3.46,11.3,11.4,11.17c6.53-.1,7.58-11.17,7.58-11.17Z"/><path class="cls-15" d="M403.76,223.28a113.08,113.08,0,0,1-2.39,20.92c-1,4.18-4.63,7.11-8.49,9.48l-.7.43c-4.08,2.51-7.45,2.59-11.61.22h0c-4.21-2.39-8.11-5.56-9-10-1.68-8.14-3-12.71-3.41-17-.75-7.11-.45-22.4,17.77-22.4S403.76,223.28,403.76,223.28Z"/><path class="cls-9" d="M380.09,232.48a1.47,1.47,0,1,1-1.47-1.47A1.47,1.47,0,0,1,380.09,232.48Z"/><path class="cls-9" d="M394.49,232.48A1.47,1.47,0,1,1,393,231,1.46,1.46,0,0,1,394.49,232.48Z"/><polyline class="cls-16" points="384.49 236.32 384.49 238.67 386.4 238.67"/><path d="M373.15,226.27l9.59-.86s-.86-2.49-4.74-2.09S373.15,226.27,373.15,226.27Z"/><path d="M397.88,226.27l-9.6-.86s.86-2.49,4.74-2.09S397.88,226.27,397.88,226.27Z"/><path class="cls-4" d="M433.78,314.58h-95.4c1.74-7.22,3.53-13.64,5.3-18.64,2.62-7.38,6.39-11.7,9.51-14.16a16.54,16.54,0,0,1,5.57-3.09l6.62-2.77,41.88,0,6.14,2.73s9.84,2.48,15.08,17.25C430.25,300.94,432,307.36,433.78,314.58Z"/><path class="cls-15" d="M386.83,267.1,407.26,276s-21,19-41.88,0Z"/><path class="cls-25" d="M365.38,275.92a28.45,28.45,0,0,0,20.89,8.61,28.87,28.87,0,0,0,21-8.57"/><path class="cls-27" d="M401.84,236.05s-.32-.17-1.44,1.63-2,6.62-2,6.62a9.07,9.07,0,0,0-3.88-3.7c-2.57-1.32-8-.59-8.89-.45-1.42-.25-4.8-.67-7,.45a9,9,0,0,0-3.88,3.7s-.91-4.82-2-6.62-1.45-1.63-1.45-1.63-.58,9.37,1.93,14.94c2.21,4.9,10.7,6.92,12.71,7,0,0,11.51-1.44,14-7S401.84,236.05,401.84,236.05Z"/><path class="cls-4" d="M381.21,242h9.46s-.44,2.9-4.87,2.9S381.21,242,381.21,242Z"/></g><circle class="cls-3" cx="113.61" cy="403.46" r="56.54" transform="translate(-305.32 416.96) rotate(-76.12)"/><g class="cls-30"><circle class="cls-15" cx="131.59" cy="392.82" r="6.16"/><path class="cls-16" d="M135.06,391.86s-2.48-1.13-4.7,3.19"/><path class="cls-15" d="M102.93,392.65a6.16,6.16,0,1,1-6.33-6A6.16,6.16,0,0,1,102.93,392.65Z"/><path class="cls-16" d="M93.28,392s2.45-1.19,4.78,3.07"/><path class="cls-24" d="M141.31,459.66H85.79l.1-29A17.48,17.48,0,0,1,89.7,429a34.08,34.08,0,0,1,6.35-1.31l17.48,1.76L131,427.7a34.18,34.18,0,0,1,5.09.95h0a19.16,19.16,0,0,1,5,2Z"/><path class="cls-15" d="M89.78,429l20.6-5.41h7.1l18.63,5.07h0c-9.53,8.93-33.17,16.25-45.27.76Z"/><path class="cls-15" d="M120.13,405.12a14.66,14.66,0,0,1-5.1,3.05c-2.43.6-4.79-1.24-4.82-1.27l-2.85-2.13-1.14,20.28.32.34c4.13,4.43,10.07,4.5,14.24.15l.61-.64Z"/><path class="cls-24" d="M89.77,429l-2.4,30.66H67.91c2-4.76,4.41-10.49,6.6-16.11,4.93-12.7,14.29-14.4,15.19-14.54Z"/><path class="cls-24" d="M159.28,459.66h-20l-3.19-31h0c.65.08,11.05,1.71,16.42,14.89C155,449.45,157.35,455.14,159.28,459.66Z"/><path class="cls-28" d="M113.88,443.65a48.11,48.11,0,0,0,29-11.69c-1.17-4.71-6.8-8.37-6.8-8.37a7.3,7.3,0,0,0-1-5.49c-1.77-2.42.89-6,3.4-16s.44-26-5.9-37S113.48,355,113.46,355s-12.76-.85-19.1,10.14-8.41,27-5.9,37,5.16,13.58,3.39,16a7.27,7.27,0,0,0-1,5.49S85.19,427.25,84,432a48.16,48.16,0,0,0,29,11.69v0h.84Z"/><circle class="cls-28" cx="114.01" cy="381.09" r="19.35" transform="translate(-283.28 400.73) rotate(-76.17)"/><path class="cls-9" d="M105.44,402.1s3.42,11.84,9.53,11.73c5-.1,6.41-11.15,6.41-11.15Z"/><path class="cls-15" d="M130.81,381.3a70.29,70.29,0,0,1-1.9,16.51c-1,4-3.68,6.81-7.53,9.08l-.7.41a13.94,13.94,0,0,1-13.53.21h0c-4.2-2.29-7.15-5.32-8.07-9.61a102.09,102.09,0,0,1-1.91-16.43s-1.4-18,16.74-17.79S130.81,381.3,130.81,381.3Z"/><polyline class="cls-16" points="112.53 391.18 112.53 393.81 114.31 393.81"/><path d="M100.21,381.15l9.59-.86s-.86-2.49-4.74-2.09S100.21,381.15,100.21,381.15Z"/><path d="M126.58,381.15l-9.59-.86s.86-2.49,4.73-2.09S126.58,381.15,126.58,381.15Z"/><path class="cls-4" d="M108.19,396.25h10.47s-.4,2.73-5.42,2.73C109.11,399,108.19,396.25,108.19,396.25Z"/><path class="cls-17" d="M108.67,387.62s-2.48-2-4.66,0"/><path class="cls-17" d="M122.69,387.62a3.23,3.23,0,0,0-4.54,0"/><path class="cls-18" d="M104,381l7,9.54s-2.12,4.06-5.49,3.61l-7.1-9.32S100.38,380.73,104,381Z"/><path class="cls-18" d="M121.32,381l7,9.54s-2.12,4.06-5.5,3.61l-7.1-9.32S117.67,380.73,121.32,381Z"/><path class="cls-19" d="M111.61,387.62a6.88,6.88,0,1,1-6.87-6.87A6.87,6.87,0,0,1,111.61,387.62Z"/><path class="cls-19" d="M128.93,387.62a6.88,6.88,0,1,1-6.88-6.87A6.88,6.88,0,0,1,128.93,387.62Z"/><path class="cls-19" d="M111.61,387.62a5.4,5.4,0,0,1,3.57,0"/><path class="cls-28" d="M130.81,377.2c-1.84-17-13.21-16.49-17.69-15.61-4.48-.88-15.85-1.39-17.7,15.61a35.51,35.51,0,0,0,8.77-3.18,19.36,19.36,0,0,1,17.86,0A35.52,35.52,0,0,0,130.81,377.2Z"/></g><circle class="cls-1" cx="249.3" cy="403.46" r="56.54" transform="translate(-212.27 294.45) rotate(-45)"/><g class="cls-31"><path class="cls-32" d="M304,463H194.89c5-22.58,18.53-27.09,18.53-27.09l26-12.17,9.86-.09h.27l9.87.09,26,12.17S299,440.42,304,463Z"/><path class="cls-21" d="M238.41,389.41a6.16,6.16,0,1,1-6.33-6A6.15,6.15,0,0,1,238.41,389.41Z"/><path class="cls-22" d="M228.76,388.72s2.45-1.19,4.78,3.06"/><circle class="cls-21" cx="267.07" cy="389.59" r="6.16"/><path class="cls-22" d="M270.54,388.62s-2.48-1.12-4.7,3.2"/><path class="cls-21" d="M257.57,403.78a21,21,0,0,1-6.64,3.06,10,10,0,0,1-6.28-1.26l-3.7-2.12-1.52,20.28.41.33a14.7,14.7,0,0,0,18.54.13l.79-.64Z"/><path class="cls-9" d="M239.43,401.33s3.46,11.3,11.4,11.17c6.53-.1,7.58-11.17,7.58-11.17Z"/><path class="cls-21" d="M266.3,378.86a77.2,77.2,0,0,1-1.9,17.25c-.95,4.18-3.67,7.11-7.53,9.48l-.7.43a13.42,13.42,0,0,1-13.53.22h0c-4.2-2.4-7.15-5.57-8.08-10a112,112,0,0,1-1.9-17.17s-2.37-18.84,15.78-18.59S266.3,378.86,266.3,378.86Z"/><circle class="cls-9" cx="241.65" cy="384.39" r="1.47"/><circle class="cls-9" cx="256.06" cy="384.39" r="1.47"/><polyline class="cls-22" points="247.52 386.53 247.52 390.58 250.14 390.58"/><path d="M236.18,378.18l9.59-.87s-.86-2.48-4.73-2.08S236.18,378.18,236.18,378.18Z"/><path d="M260.91,378.18l-9.6-.87s.86-2.48,4.74-2.08S260.91,378.18,260.91,378.18Z"/><path class="cls-4" d="M244.24,393.93h9.46s-.44,2.9-4.87,2.9S244.24,393.93,244.24,393.93Z"/><path class="cls-9" d="M233.27,387.94s2.69-20.37,1.38-23.73C234.65,364.21,225.51,371.77,233.27,387.94Z"/><path class="cls-9" d="M265.61,387.78s-3-19.45-2.18-25C263.43,362.73,272.25,370.54,265.61,387.78Z"/><path class="cls-9" d="M262.8,358.43l-8.37-1.65-.74-1.89-4.41.87-4.42-.87-.73,1.89-8.37,1.65-1.11,5.83.27,6.72s1.33-7.63,5.93-6.11c1.09.36,2.39.95,3.91,1.35a16,16,0,0,0,4.06.62h.92a15.83,15.83,0,0,0,4-.62,24.81,24.81,0,0,0,3.91-1.35c4.28-1.94,5.85,5.76,5.85,5.76l.36-6.37Z"/><path class="cls-21" d="M239.43,423.74l-5.81,2.67s-.06,9.74,15.73,9.24c16.2-.52,16.11-9.09,16.11-9.09l-6.29-3Z"/><path class="cls-9" d="M232.9,369.39a3.67,3.67,0,1,1-3.67-3.67A3.67,3.67,0,0,1,232.9,369.39Z"/><path class="cls-9" d="M233,375.77a3.09,3.09,0,1,1-3.09-3.09A3.09,3.09,0,0,1,233,375.77Z"/><path class="cls-9" d="M271.87,375.25a3.1,3.1,0,1,1-3.09-3.09A3.09,3.09,0,0,1,271.87,375.25Z"/><path class="cls-9" d="M235.64,364.21a3.68,3.68,0,1,1-3.68-3.67A3.68,3.68,0,0,1,235.64,364.21Z"/><path class="cls-9" d="M239.31,359.34a3.68,3.68,0,1,1-3.67-3.67A3.67,3.67,0,0,1,239.31,359.34Z"/><path class="cls-9" d="M244.65,356.5a3.68,3.68,0,1,1-3.67-3.67A3.67,3.67,0,0,1,244.65,356.5Z"/><path class="cls-9" d="M250.06,355.27a3.68,3.68,0,1,1-3.67-3.68A3.67,3.67,0,0,1,250.06,355.27Z"/><path class="cls-9" d="M266.14,369.39a3.68,3.68,0,1,0,3.67-3.67A3.67,3.67,0,0,0,266.14,369.39Z"/><path class="cls-9" d="M263.41,364.21a3.67,3.67,0,1,0,3.67-3.67A3.67,3.67,0,0,0,263.41,364.21Z"/><path class="cls-9" d="M259.73,359.34a3.68,3.68,0,1,0,3.68-3.67A3.67,3.67,0,0,0,259.73,359.34Z"/><path class="cls-9" d="M254.39,356.5a3.68,3.68,0,1,0,3.68-3.67A3.67,3.67,0,0,0,254.39,356.5Z"/><path class="cls-9" d="M249,355.27a3.68,3.68,0,1,0,3.68-3.68A3.67,3.67,0,0,0,249,355.27Z"/></g><circle class="cls-3" cx="386.88" cy="403.53" r="56.54" transform="translate(-96.39 684.53) rotate(-76.38)"/><g class="cls-33"><path class="cls-14" d="M425,452.79c-1.83-4.88-7.43-11.29-18.27-13l-20.21-4-20.21,4c-10.84,1.7-16.44,8.11-18.27,13l-4.24,19.12h85.43Z"/><path class="cls-34" d="M365.7,440l21.91-4.44L408.06,440l-.45.32c-12.49,9-29.31,8.59-41.91-.26Z"/><path class="cls-35" d="M375.61,407.59a5.91,5.91,0,1,1-6.14-5.68A5.93,5.93,0,0,1,375.61,407.59Z"/><path class="cls-10" d="M366.33,407s2.34-1.17,4.62,2.89"/><path class="cls-35" d="M397.2,407.53a5.92,5.92,0,1,0,5.86-6A5.93,5.93,0,0,0,397.2,407.53Z"/><path class="cls-10" d="M406.44,406.51s-2.39-1.05-4.47,3.12"/><ellipse cx="386.09" cy="393.26" rx="20.35" ry="18.99" transform="translate(-4.04 4.01) rotate(-0.59)"/><path class="cls-34" d="M392.24,419.39a14.18,14.18,0,0,1-4.87,3c-2.32.6-4.61-1.14-4.64-1.17l-2.75-2-.89,19.48.3.32c4,4.21,9.71,4.21,13.67,0l.58-.62Z"/><path class="cls-9" d="M378.11,416.63s3.4,11.35,9.26,11.17c4.81-.14,6-10.76,6-10.76Z"/><path class="cls-34" d="M402.26,396.42a67.76,67.76,0,0,1-1.66,15.87c-.88,3.85-3.46,6.57-7.14,8.79l-.67.4a13.42,13.42,0,0,1-13,.34h0c-4.05-2.16-6.91-5-7.84-9.15a98.81,98.81,0,0,1-2-15.75s-1.53-17.3,15.89-17.25S402.26,396.42,402.26,396.42Z"/><polyline class="cls-36" points="384.8 405.45 384.83 407.95 386.54 407.93"/><path d="M372.88,396.58l9.2-.92s-.85-2.38-4.57-2S372.88,396.58,372.88,396.58Z"/><path d="M398.2,396.32l-9.22-.74s.8-2.39,4.53-2S398.2,396.32,398.2,396.32Z"/><path class="cls-9" d="M380.09,402.11a1.41,1.41,0,0,1-2.82,0,1.41,1.41,0,1,1,2.82,0Z"/><path class="cls-9" d="M393.92,402a1.41,1.41,0,1,1-1.42-1.4A1.41,1.41,0,0,1,393.92,402Z"/><path class="cls-10" d="M380.55,411.54s3.94,2.1,10.23-.1"/><path d="M402.22,392.49s-25.63,1.22-24.7-13.82C377.52,378.67,399.8,372.1,402.22,392.49Z"/><path d="M369.54,392.84s9-3.87,8.87-13.1C378.41,379.74,369.19,380.9,369.54,392.84Z"/><circle cx="385.45" cy="364.61" r="11.99"/><path d="M385,372.22a7.13,7.13,0,1,1-7.12-6.74A6.94,6.94,0,0,1,385,372.22Z"/><circle cx="394.55" cy="373.87" r="6.35"/></g></g></svg>