<svg id="Layer_1" data-name="Layer 1" xmlns="http://www.w3.org/2000/svg" viewBox="0 0 107.52 63.48"><defs><style>.cls-1{fill:none;stroke-width:0.5px;}.cls-1,.cls-3{stroke:#fff;}.cls-2,.cls-3{fill:#fff;}.cls-3{stroke-width:0.25px;}</style></defs><path class="cls-1" d="M128.61,63.37l-4.12,15.37a3.93,3.93,0,0,1-7.51,0l-4.12-15.37a4,4,0,0,1,1-.12A3.74,3.74,0,0,1,117.44,66l3.29,12.29L124,66a3.73,3.73,0,0,1,3.61-2.77A4.09,4.09,0,0,1,128.61,63.37Z" transform="translate(-21.39 -18.39)"/><path class="cls-1" d="M84.6,44.93h0a3.48,3.48,0,0,1,3.48,3.48V63.23a0,0,0,0,1,0,0h0a3.48,3.48,0,0,1-3.48-3.48V44.93A0,0,0,0,1,84.6,44.93Z"/><path class="cls-2" d="M107.67,54.82A2.19,2.19,0,1,0,109.86,57,2.19,2.19,0,0,0,107.67,54.82Zm.15,4c1.37-1.13,1.33-2.53-.08-3.68a1.91,1.91,0,0,1,1.67,1.64C109.54,58.3,107.82,58.82,107.82,58.82Z" transform="translate(-21.39 -18.39)"/><path class="cls-1" d="M99.42,76c0-.31-.09-24-.09-24a4.32,4.32,0,0,0-1.08-2.77,3,3,0,0,0-2.31-.81V64.87a9.91,9.91,0,0,0-5.39-1.59,9.05,9.05,0,0,0-6.62,2.86h0a10.55,10.55,0,0,0-.69.81A8.55,8.55,0,0,0,82.56,68a9,9,0,0,0-1.1,3.89c0,.15,0,.3,0,.45s0,.31,0,.45,0,.27,0,.41a9.16,9.16,0,0,0,9.13,8.31,8.21,8.21,0,0,0,5.9-2.5,4.53,4.53,0,0,0,1.42,1.9c1.65,1.4,4.87.48,4.87-1.68C99.87,79.43,99.48,78.87,99.42,76Zm-3.33-3.55a1.21,1.21,0,0,1,0,.19v0c0,.06,0,.12,0,.18a1.37,1.37,0,0,0,0,.19,1.55,1.55,0,0,1,0,.21v0c0,.07,0,.14,0,.21s0,.12,0,.17a.44.44,0,0,0,0,.1.5.5,0,0,0,0,.13s0,.11-.05.16l-.09.26-.06.13,0,0a.61.61,0,0,1-.05.12,3.54,3.54,0,0,1-.16.34l-.08.14a6.25,6.25,0,0,1-.4.6,2.09,2.09,0,0,1-.14.17l-.08.1-.09.1-.09.1-.19.19-.1.09-.2.17-.1.08a7,7,0,0,1-.72.49l-.11,0-.19.1-.08,0-.15.07h0l-.2.08-.19.07h0l-.18.06-.47.11-.13,0a4.91,4.91,0,0,1-.78.08H90l-.16,0-.11,0-.13,0-.11,0-.16,0-.07,0-.2-.05a6,6,0,0,1-.92-.35l-.09,0a6.21,6.21,0,0,1-.65-.39l-.13-.09a.52.52,0,0,1-.11-.1l-.08-.06a5.46,5.46,0,0,1-.69-.67l-.25-.3,0,0-.1-.14-.1-.15-.07-.11-.08-.14h0l0-.1,0,0s0,0,0-.06l-.11-.22,0,0a1.54,1.54,0,0,1-.08-.19.36.36,0,0,1,0-.09h0a1.43,1.43,0,0,1-.08-.22l0,0s0,0,0,0,0-.08,0-.12l0-.11s0,0,0-.06,0-.13,0-.19v0s0-.06,0-.09a.78.78,0,0,1,0-.14v0c0-.15,0-.3,0-.45v0h0c0-.15,0-.3,0-.45s0-.11,0-.17h0v-.07A.49.49,0,0,1,85,72v-.1a.49.49,0,0,1,0-.12c0-.05,0-.09,0-.13s0-.09,0-.13,0-.07,0-.11,0-.06,0-.09a.09.09,0,0,0,0,0s0,0,0-.07a2.1,2.1,0,0,1,.06-.24.09.09,0,0,1,0,0,.14.14,0,0,1,0-.06,1.21,1.21,0,0,1,0-.18h0l.09-.24a.69.69,0,0,1,0-.13.61.61,0,0,1,0-.12.37.37,0,0,1,.05-.11l.06-.15.09-.17a1.4,1.4,0,0,1,.1-.16l.09-.16.1-.15a.43.43,0,0,1,0-.07l0,0c.13-.18.27-.35.41-.51s.13-.13.19-.19l.09-.1.1-.09.1-.09.1-.08.21-.17A5.51,5.51,0,0,1,89,67l.2-.05.07,0,.16,0,.11,0,.13,0,.11,0,.16,0h1.19l.15,0,.22,0h0l.11,0,.17,0,.2,0,.19,0h0l.19.07.18.07h0l.37.17.18.09.16.09h0l.16.1.18.11.16.12a4.94,4.94,0,0,1,.44.36l.1.09.19.19.09.1.09.1a7389508906989,7389508906989,0,0,0,.16.2l.09.11a1.13,1.13,0,0,0,.1.13,3.45,3.45,0,0,1,.2.32.56.56,0,0,1,0,.08c.07.11.12.22.18.33s.11.23.15.34h0s0,.08,0,.12A5.09,5.09,0,0,1,96,71.55s0,.09,0,.13,0,.1,0,.15a.57.57,0,0,1,0,.13c0,.13,0,.27,0,.41Z" transform="translate(-21.39 -18.39)"/><rect class="cls-2" x="10.42" y="15.39" width="0.01" height="14.08"/><path class="cls-2" d="M37.41,52.23a14.78,14.78,0,0,1-1.5.07H27.07v-.07Z" transform="translate(-21.39 -18.39)"/><rect class="cls-2" width="5.68" height="7.12"/><path class="cls-2" d="M55.48,38.91a21.8,21.8,0,0,1-1.85,9,19.38,19.38,0,0,1-2.69,4.34,20.37,20.37,0,0,1-16,7.21H21.39V30H31.81v0h5.47l.54,0a8.85,8.85,0,0,1,6.7,3.8,9,9,0,0,1,1.54,5.13,8.77,8.77,0,0,1-8.8,9H31.82V33.78H27.07V52.3h8.84a14.78,14.78,0,0,0,1.5-.07,14.3,14.3,0,0,0,9.08-4.34,12.87,12.87,0,0,0,3.49-9,13.15,13.15,0,0,0-1-5.13A12.74,12.74,0,0,0,46.51,30,14.48,14.48,0,0,0,36,25.53H31.82V18.39H35A20.41,20.41,0,0,1,50.83,25.5,19.42,19.42,0,0,1,53.63,30a20.21,20.21,0,0,1,1.28,3.8A22.91,22.91,0,0,1,55.48,38.91Z" transform="translate(-21.39 -18.39)"/><path class="cls-2" d="M37.26,15.95h0a3,3,0,0,1,3,3V31.59a0,0,0,0,1,0,0h0a3,3,0,0,1-3-3V15.95A0,0,0,0,1,37.26,15.95Z"/><path class="cls-2" d="M60.09,27.07A1.88,1.88,0,1,0,62,28.94,1.87,1.87,0,0,0,60.09,27.07Zm.13,3.43a1.84,1.84,0,0,0-.07-3.15,1.63,1.63,0,0,1,1.43,1.4C61.69,30.05,60.22,30.5,60.22,30.5Z" transform="translate(-21.39 -18.39)"/><path class="cls-2" d="M62.32,15.95h0a3,3,0,0,1,3,3V31.59a0,0,0,0,1,0,0h0a3,3,0,0,1-3-3V15.95a0,0,0,0,1,0,0Z"/><path class="cls-2" d="M85.14,27.07A1.88,1.88,0,1,0,87,28.94,1.87,1.87,0,0,0,85.14,27.07Zm.13,3.43a1.84,1.84,0,0,0-.06-3.15,1.62,1.62,0,0,1,1.42,1.4C86.75,30.05,85.27,30.5,85.27,30.5Z" transform="translate(-21.39 -18.39)"/><path class="cls-2" d="M127.91,50.61v.27a7.53,7.53,0,0,1-7.54-7.53V22.18a3,3,0,0,1,3,3V43.38a4.59,4.59,0,0,0,2.53,4.15l.06,0A3.37,3.37,0,0,1,127.91,50.61Z" transform="translate(-21.39 -18.39)"/><path class="cls-2" d="M99.33,31.4a3,3,0,0,1-3,3h-2V50a3,3,0,0,1-3-3V27.91a3,3,0,0,1,3,3v.51Z" transform="translate(-21.39 -18.39)"/><path class="cls-1" d="M80.08,42.09a7.7,7.7,0,0,0-2.14-5.35,6,6,0,0,0,1.65-1.06c1.41-1.2,1-4-.82-4,0,2.25-1.28,2.95-3.34,2.95-.34,0-.69,0-1.06,0h-.08a7.91,7.91,0,0,0-1.39-.23,5.72,5.72,0,0,0-.59,0,7.75,7.75,0,0,0-3.5.83l-.08,0A7.78,7.78,0,0,0,67,47.75h0a6.53,6.53,0,0,0,.7.58,7.55,7.55,0,0,0,4.24,1.52h.77a4.67,4.67,0,0,1,2,.65,4.77,4.77,0,0,1,2.32,4.07,4.74,4.74,0,0,1-7.17,4.07l0,0a4,4,0,0,0-4.13,0l0,0a7.77,7.77,0,0,0,11.14,2.25,7.77,7.77,0,0,0,2.1-10.39,7.92,7.92,0,0,0-2-2.17,8,8,0,0,0,.7-.58A7.77,7.77,0,0,0,80.08,42.09ZM79,31.85a1.63,1.63,0,0,1,1.08,1.68c-.18,1.25-1.63,1.39-1.72,1.4A1.84,1.84,0,0,0,79,31.85Zm-6.32,15-.38,0-.39,0a4.74,4.74,0,0,1,.39-9.46h.08a4.87,4.87,0,0,1,1.39.23,4.74,4.74,0,0,1-1.09,9.23Z" transform="translate(-21.39 -18.39)"/><path class="cls-3" d="M80.09,33.53c-.18,1.25-1.63,1.39-1.72,1.4A1.84,1.84,0,0,0,79,31.85,1.63,1.63,0,0,1,80.09,33.53Z" transform="translate(-21.39 -18.39)"/><path class="cls-2" d="M114.93,45.09a8.13,8.13,0,0,1,0-.84c0-.07,0-.14,0-.22V44a8,8,0,0,0,.24-1.38c0-.2,0-.4,0-.6a7.75,7.75,0,0,0-.83-3.5.25.25,0,0,1,0-.07,7.79,7.79,0,0,0-6.91-4.2,7.7,7.7,0,0,0-5.65,2.45h0a7.68,7.68,0,0,0-.59.69,7.92,7.92,0,0,0-.58.92,7.61,7.61,0,0,0-.94,3.33c0,.12,0,.25,0,.38s0,.26,0,.39,0,.23,0,.34a7.84,7.84,0,0,0,1.52,4l0-.06a6.62,6.62,0,0,0,.59.7,7.78,7.78,0,0,0,11,.31l0,.06a4.44,4.44,0,0,0,1,1.59c1.65,1.6,4.54.55,4.54-1.3C116,48.16,114.93,47.15,114.93,45.09Zm-2.73-3v.19a1,1,0,0,1,0,.17.25.25,0,0,1,0,.08,2.91,2.91,0,0,1,0,.31.5.5,0,0,0,0,.12l0,.06,0,.12,0,.08a2.33,2.33,0,0,1-.07.25l-.06.16v0l-.06.15c0,.1-.09.2-.14.3l0,.1h0l-.06.1a4.92,4.92,0,0,1-.37.56l-.09.12h0l-.09.1-.2.22-.09.09-.09.08-.07.06-.19.16-.12.09-.15.1h0L110,46a3.37,3.37,0,0,1-.32.19l-.13.06-.07,0-.13,0h0l-.17.06-.16.06h0l-.15,0a2.92,2.92,0,0,1-.4.1l-.11,0a4.91,4.91,0,0,1-.67.08H107l-.14,0h-.09l-.11,0-.09,0-.14,0h-.06l-.17,0a4.28,4.28,0,0,1-.8-.31l-.1,0a2.33,2.33,0,0,1-.34-.2l-.09,0,0,0-.08,0-.06-.05-.09-.06a.27.27,0,0,0-.08-.07l-.08-.07-.09-.07-.08-.07-.07-.08a1.37,1.37,0,0,1-.17-.17l-.13-.14-.2-.25-.19-.27-.15-.25h0l0,0a4.71,4.71,0,0,1-.58-2.28v-.21a4.93,4.93,0,0,1,.16-1h0v0h0a3,3,0,0,1,.21-.6l0-.1.06-.11a1,1,0,0,1,.07-.15l.08-.14.08-.14.09-.13,0,0,0,0,.14-.18a6854390423639.62,6854390423639.62,0,0,0,.22-.26l.16-.17.08-.08.08-.07a.6.6,0,0,0,.08-.08l.09-.07.18-.14a4.62,4.62,0,0,1,1.54-.76l.17-.05h.06l.14,0,.09,0,.11,0h.09l.14,0h.5A4.73,4.73,0,0,1,112.2,42Z" transform="translate(-21.39 -18.39)"/></svg>