<svg xmlns="http://www.w3.org/2000/svg" width="88.65" height="93.02" viewBox="0 0 88.65 93.02"><g transform="translate(271.61 -549.48)"><path d="M-183.66,622.22l-1.93-.94a1.618,1.618,0,0,1-.83-1.3s0-.25-.05-.84l-.02-.2c-.02-.22.3-.62.72-.88l1.82-1.15a1.317,1.317,0,0,0,.53-1.36l-1.07-3.29a1.316,1.316,0,0,0-1.24-.78l-2.15.16a1.535,1.535,0,0,1-1.31-.61c-.23-.37-.69-1.66-.46-2.1l1-1.9a1.3,1.3,0,0,0-.22-1.44l-2.58-2.31a1.316,1.316,0,0,0-1.46-.06l-1.78,1.21a1.507,1.507,0,0,1-1.43.13,4.289,4.289,0,0,1-1.37-1.33.556.556,0,0,1-.08-.26l-.08-2.14a1.325,1.325,0,0,0-.91-1.15l-3.39-.7a1.309,1.309,0,0,0-1.3.68l-.93,1.93a1.633,1.633,0,0,1-1.3.83s-.19,0-.64.03c-.06.01-.13.01-.2.02l-.2.02c-.22.03-.62-.29-.88-.72l-1.15-1.82a1.317,1.317,0,0,0-1.36-.53l-3.3,1.07a1.327,1.327,0,0,0-.77,1.24l.15,2.15a1.534,1.534,0,0,1-.6,1.32c-.37.22-1.66.68-2.1.45l-1.9-1a1.334,1.334,0,0,0-1.45.22l-2.3,2.58a1.316,1.316,0,0,0-.06,1.46l1.21,1.78a1.525,1.525,0,0,1,.13,1.44c-.21.38-1.1,1.42-1.6,1.44l-2.14.09a1.312,1.312,0,0,0-1.14.91l-.71,3.39c0,.02-.01.03,0,.05a1.322,1.322,0,0,0,.69,1.24l1.93.94a1.6,1.6,0,0,1,.83,1.3s0,.25.05.83l.02.21c.03.22-.3.61-.72.88l-1.82,1.15a1.31,1.31,0,0,0-.53,1.36l.16.48.91,2.81a1.332,1.332,0,0,0,1.24.78l2.15-.16a1.522,1.522,0,0,1,1.31.61c.22.36.69,1.65.46,2.09l-1,1.9a1.332,1.332,0,0,0,.21,1.45l2.59,2.31a1.316,1.316,0,0,0,1.46.05l1.78-1.2a1.508,1.508,0,0,1,1.43-.13c.38.2,1.43,1.09,1.45,1.59l.08,2.14a1.325,1.325,0,0,0,.91,1.15l3.39.7a1.326,1.326,0,0,0,1.3-.68l.93-1.93a1.612,1.612,0,0,1,1.31-.83s.25-.01.83-.06l.2-.01c.22-.03.62.29.89.71l1.14,1.82a1.306,1.306,0,0,0,1.36.54l3.29-1.07a1.32,1.32,0,0,0,.78-1.24l-.15-2.15a1.534,1.534,0,0,1,.6-1.32c.37-.22,1.66-.68,2.1-.45l1.9,1a1.334,1.334,0,0,0,1.45-.22l2.31-2.58a1.332,1.332,0,0,0,.05-1.47l-1.21-1.77a1.527,1.527,0,0,1-.13-1.44c.21-.38,1.1-1.42,1.6-1.44l2.14-.09a1.312,1.312,0,0,0,1.14-.91l.71-3.39A1.319,1.319,0,0,0-183.66,622.22Zm-21.07,13.28a14.788,14.788,0,0,1-13.63-9.1,14.673,14.673,0,0,1-1.13-5.67,15.2,15.2,0,0,1,.25-2.72,14.785,14.785,0,0,1,13.12-11.97,12.813,12.813,0,0,1,1.39-.07,14.663,14.663,0,0,1,7.24,1.9,14.768,14.768,0,0,1,7.52,12.86A14.784,14.784,0,0,1-204.73,635.5Z" fill="#f80"/><path d="M-197.49,609.99a12.949,12.949,0,0,0-7.24-2.21,12.81,12.81,0,0,0-1.39.08,12.975,12.975,0,0,0-11.28,10.15,12.877,12.877,0,0,0-.29,2.72,12.841,12.841,0,0,0,1.31,5.67,12.967,12.967,0,0,0,11.65,7.29,12.976,12.976,0,0,0,12.96-12.96A12.954,12.954,0,0,0-197.49,609.99Zm-6.45,19.77a9.026,9.026,0,0,1-7.86-3.36,9.134,9.134,0,0,1-1.96-4.88,8.923,8.923,0,0,1,.39-3.51,9.033,9.033,0,0,1,7.25-6.22c.2-.04.4-.06.6-.08a9.009,9.009,0,0,1,8.03,3.58,9.046,9.046,0,0,1,1.79,4.66A9.065,9.065,0,0,1-203.94,629.76Z" fill="#f80"/><path d="M-204.48,558.34h-2.45v4.43a5.367,5.367,0,0,1-5.36,5.36,5.367,5.367,0,0,1-5.36-5.36v-4.43h-33.8v4.43a5.373,5.373,0,0,1-5.36,5.36,5.367,5.367,0,0,1-5.36-5.36v-4.43h-2.45a6.991,6.991,0,0,0-6.99,6.99v54.08a6.991,6.991,0,0,0,6.99,6.99h38.74l-.16-.48a1.31,1.31,0,0,1,.53-1.36l1.82-1.15c.42-.27.75-.66.72-.88l-.02-.21c-.05-.58-.05-.83-.05-.83a1.6,1.6,0,0,0-.83-1.3l-1.93-.94a1.322,1.322,0,0,1-.69-1.24h-33.7a2.671,2.671,0,0,1-2.8-2.53V580.45a2.671,2.671,0,0,1,2.8-2.53h51.28a2.668,2.668,0,0,1,2.79,2.53v22c.45-.03.64-.03.64-.03a1.633,1.633,0,0,0,1.3-.83l.93-1.93a1.309,1.309,0,0,1,1.3-.68l3.39.7a1.325,1.325,0,0,1,.91,1.15l.08,2.14a.556.556,0,0,0,.08.26v-37.9A6.991,6.991,0,0,0-204.48,558.34Z" fill="#29abe2"/><path d="M-259.376,552.043v10.723a2.567,2.567,0,0,0,2.564,2.565,2.567,2.567,0,0,0,2.564-2.565V552.043a2.565,2.565,0,0,0-2.564-2.563A2.565,2.565,0,0,0-259.376,552.043Z" fill="#29abe2"/><path d="M-214.856,552.043v10.723a2.568,2.568,0,0,0,2.565,2.565,2.567,2.567,0,0,0,2.564-2.565V552.043a2.565,2.565,0,0,0-2.564-2.563A2.566,2.566,0,0,0-214.856,552.043Z" fill="#29abe2"/></g></svg>