<svg xmlns="http://www.w3.org/2000/svg" width="96.02" height="91.764" viewBox="0 0 96.02 91.764"><defs><style>.a{fill:#6fb6ff;}.b{fill:#4d4e50;}</style></defs><g transform="translate(-440.562 -979.89)"><path class="a" d="M504.977,985.7a9.044,9.044,0,1,0,9.045,9.043A9.053,9.053,0,0,0,504.977,985.7Z" transform="translate(10.534 1.105)"/><path class="a" d="M515.68,979.89a20.9,20.9,0,0,0-19.975,27.061l-6.239,2.994a26.62,26.62,0,1,0-4.506,34.312l3.836,3.184a15.934,15.934,0,1,0,3.637-4.2l-3.752-3.114a26.551,26.551,0,0,0,3.555-24.631l6.165-2.96A20.9,20.9,0,1,0,515.68,979.89Zm-18.3,64.637a12.258,12.258,0,0,1,13.667,19.926c-.958-4.579-3.039-6.248-3.633-6.64-.058.056-.119.109-.177.159s-.124.111-.187.162c-.13.1-.262.207-.4.3l-2.782,5.874-.6-3.361.827-1.359c-.1.024-.2.044-.308.064a7.823,7.823,0,0,1-.808.1c-.151.013-.3.018-.455.021a7.39,7.39,0,0,1-1.7-.184l.869,1.371-.5,3.433-3.218-6.157q-.218-.171-.424-.357l-.058.049a12.242,12.242,0,0,0-3.6,6.467,12.256,12.256,0,0,1,3.479-19.876ZM474.81,1032.32c-.173.214-3.61,2.458-3.61,2.458l1.69,2.3-5.351,4.2.01.021-.017-.013-.018.013.01-.021-5.351-4.2,1.69-2.3s-3.437-2.244-3.61-2.458c-.307-.386,1.535-2.151,1.535-2.151l5.744,11.1,5.743-11.1S475.117,1031.934,474.81,1032.32Zm6.373,6.977a22.154,22.154,0,0,0-2.826-7.462c.813-3.731,1.469-8.491,1-11.82-.074-.509-.149-1-.231-1.469a10.153,10.153,0,0,0-.133-1.166,16.57,16.57,0,0,0-1.269-4.1,9.726,9.726,0,0,0-3.769-4.859,10.061,10.061,0,0,0-6.24-2.126,11.041,11.041,0,0,0-3.44.55,8.3,8.3,0,0,0-5.388,3.551,11.3,11.3,0,0,0-1.276,2.469,11,11,0,0,0-.744,2.34c-.5,1.883-.856,3.986-1.229,6.152a49.885,49.885,0,0,1-2.5,10.281.29.29,0,0,0,.043.289.3.3,0,0,0,.276.1,5.7,5.7,0,0,0,3.2-1.439c-.649,1.707-3.082,2.967-3.114,2.982a.3.3,0,0,0-.155.238.283.283,0,0,0,.124.255,11.342,11.342,0,0,0,1.234.7,24.739,24.739,0,0,0-1.54,4.554,20.413,20.413,0,1,1,27.985-.024Zm45.7-27.057c-1.178-6.374-4.012-8.7-4.813-9.243l-.242.211c-.081.069-.164.139-.25.208-.174.138-.354.274-.537.4l-3.8,7.8-.756-4.493,1.124-1.8c-.138.03-.275.057-.413.081a10.082,10.082,0,0,1-1.083.129c-.2.013-.4.023-.6.023a9.616,9.616,0,0,1-2.264-.27l1.141,1.843-.714,4.572-4.2-8.264q-.291-.229-.563-.484l-.077.068a16.375,16.375,0,0,0-4.906,8.654,16.028,16.028,0,1,1,22.957.569Z" transform="translate(0 0)"/><path class="a" d="M493.565,1035.208a6.777,6.777,0,1,0,6.846,6.706A6.785,6.785,0,0,0,493.565,1035.208Z" transform="translate(8.808 10.524)"/><path class="b" d="M463.214,1031.475l.008.008.007-.008-.007-.013Z" transform="translate(4.309 9.811)"/></g></svg>